<mxfile host="app.diagrams.net" agent="Mozilla/5.0 (Windows NT 10.0; Win64; x64) AppleWebKit/537.36 (KHTML, like Gecko) Chrome/133.0.0.0 Safari/537.36" version="26.1.0">
  <diagram name="第 1 页" id="d0FyUr6zz5R3P4r2Fyhk">
    <mxGraphModel dx="1450" dy="626" grid="0" gridSize="10" guides="1" tooltips="1" connect="1" arrows="1" fold="1" page="0" pageScale="1" pageWidth="827" pageHeight="1169" math="0" shadow="0">
      <root>
        <mxCell id="0" />
        <mxCell id="1" parent="0" />
        <mxCell id="DkXdL64v2O5WJMgkYWjZ-5" style="edgeStyle=orthogonalEdgeStyle;rounded=0;orthogonalLoop=1;jettySize=auto;html=1;exitX=1;exitY=0.5;exitDx=0;exitDy=0;entryX=0;entryY=0.5;entryDx=0;entryDy=0;fontFamily=Helvetica;fontSize=12;fontColor=default;sketch=1;curveFitting=1;jiggle=2;curved=1;" edge="1" parent="1" source="DkXdL64v2O5WJMgkYWjZ-1" target="DkXdL64v2O5WJMgkYWjZ-4">
          <mxGeometry relative="1" as="geometry" />
        </mxCell>
        <mxCell id="DkXdL64v2O5WJMgkYWjZ-13" style="edgeStyle=orthogonalEdgeStyle;shape=connector;curved=1;rounded=0;sketch=1;jiggle=2;curveFitting=1;orthogonalLoop=1;jettySize=auto;html=1;exitX=1;exitY=0.5;exitDx=0;exitDy=0;entryX=0;entryY=0.5;entryDx=0;entryDy=0;strokeColor=default;align=center;verticalAlign=middle;fontFamily=Helvetica;fontSize=12;fontColor=default;labelBackgroundColor=default;endArrow=classic;" edge="1" parent="1" source="DkXdL64v2O5WJMgkYWjZ-1" target="DkXdL64v2O5WJMgkYWjZ-7">
          <mxGeometry relative="1" as="geometry" />
        </mxCell>
        <mxCell id="DkXdL64v2O5WJMgkYWjZ-14" style="edgeStyle=orthogonalEdgeStyle;shape=connector;curved=1;rounded=0;sketch=1;jiggle=2;curveFitting=1;orthogonalLoop=1;jettySize=auto;html=1;exitX=1;exitY=0.5;exitDx=0;exitDy=0;entryX=0;entryY=0.5;entryDx=0;entryDy=0;strokeColor=default;align=center;verticalAlign=middle;fontFamily=Helvetica;fontSize=12;fontColor=default;labelBackgroundColor=default;endArrow=classic;" edge="1" parent="1" source="DkXdL64v2O5WJMgkYWjZ-1" target="DkXdL64v2O5WJMgkYWjZ-8">
          <mxGeometry relative="1" as="geometry" />
        </mxCell>
        <mxCell id="DkXdL64v2O5WJMgkYWjZ-15" style="edgeStyle=orthogonalEdgeStyle;shape=connector;curved=1;rounded=0;sketch=1;jiggle=2;curveFitting=1;orthogonalLoop=1;jettySize=auto;html=1;exitX=1;exitY=0.5;exitDx=0;exitDy=0;entryX=0;entryY=0.5;entryDx=0;entryDy=0;strokeColor=default;align=center;verticalAlign=middle;fontFamily=Helvetica;fontSize=12;fontColor=default;labelBackgroundColor=default;endArrow=classic;" edge="1" parent="1" source="DkXdL64v2O5WJMgkYWjZ-1" target="DkXdL64v2O5WJMgkYWjZ-9">
          <mxGeometry relative="1" as="geometry" />
        </mxCell>
        <mxCell id="DkXdL64v2O5WJMgkYWjZ-1" value="Home" style="rounded=1;whiteSpace=wrap;html=1;sketch=1;curveFitting=1;jiggle=2;" vertex="1" parent="1">
          <mxGeometry x="-47" y="297.5" width="92" height="44" as="geometry" />
        </mxCell>
        <mxCell id="DkXdL64v2O5WJMgkYWjZ-4" value="show/hide" style="ellipse;whiteSpace=wrap;html=1;sketch=1;curveFitting=1;jiggle=2;" vertex="1" parent="1">
          <mxGeometry x="293" y="123" width="106" height="65" as="geometry" />
        </mxCell>
        <mxCell id="DkXdL64v2O5WJMgkYWjZ-6" value="唤醒位置" style="ellipse;whiteSpace=wrap;html=1;sketch=1;curveFitting=1;jiggle=2;" vertex="1" parent="1">
          <mxGeometry x="286" y="202" width="106" height="65" as="geometry" />
        </mxCell>
        <mxCell id="DkXdL64v2O5WJMgkYWjZ-7" value="语音状态" style="ellipse;whiteSpace=wrap;html=1;sketch=1;curveFitting=1;jiggle=2;" vertex="1" parent="1">
          <mxGeometry x="286" y="287" width="106" height="65" as="geometry" />
        </mxCell>
        <mxCell id="DkXdL64v2O5WJMgkYWjZ-8" value="用户输入文字" style="ellipse;whiteSpace=wrap;html=1;sketch=1;curveFitting=1;jiggle=2;" vertex="1" parent="1">
          <mxGeometry x="286" y="364" width="106" height="65" as="geometry" />
        </mxCell>
        <mxCell id="DkXdL64v2O5WJMgkYWjZ-9" value="语音回复文字" style="ellipse;whiteSpace=wrap;html=1;sketch=1;curveFitting=1;jiggle=2;" vertex="1" parent="1">
          <mxGeometry x="284" y="441" width="106" height="65" as="geometry" />
        </mxCell>
        <mxCell id="DkXdL64v2O5WJMgkYWjZ-12" style="edgeStyle=orthogonalEdgeStyle;shape=connector;curved=1;rounded=0;sketch=1;jiggle=2;curveFitting=1;orthogonalLoop=1;jettySize=auto;html=1;exitX=1;exitY=0.5;exitDx=0;exitDy=0;entryX=-0.024;entryY=0.623;entryDx=0;entryDy=0;entryPerimeter=0;strokeColor=default;align=center;verticalAlign=middle;fontFamily=Helvetica;fontSize=12;fontColor=default;labelBackgroundColor=default;endArrow=classic;" edge="1" parent="1" source="DkXdL64v2O5WJMgkYWjZ-1" target="DkXdL64v2O5WJMgkYWjZ-6">
          <mxGeometry relative="1" as="geometry" />
        </mxCell>
      </root>
    </mxGraphModel>
  </diagram>
</mxfile>
